<svg xmlns="http://www.w3.org/2000/svg" xmlns:xlink="http://www.w3.org/1999/xlink" width="500" zoomAndPan="magnify" viewBox="0 0 375 374.999991" height="500" preserveAspectRatio="xMidYMid meet" version="1.0"><path fill="#040606" d="M 361.320312 315.167969 C 361.132812 315.167969 360.953125 315.160156 360.773438 315.152344 C 355.769531 314.851562 351.964844 310.570312 352.265625 305.582031 L 353.957031 277.011719 C 354.070312 275.078125 354.273438 273.078125 354.601562 270.710938 C 356.046875 260.164062 354.179688 239.886719 353.335938 232.964844 C 353.179688 231.648438 349.339844 200.035156 355.300781 178.464844 L 355.402344 178.121094 C 356.4375 174.875 356.867188 166.351562 353.597656 157.3125 C 349.898438 147.046875 342.945312 140.003906 332.957031 136.398438 C 330.699219 135.585938 328.175781 134.945312 325.457031 134.5 C 310.824219 132.117188 294.550781 123.757812 278.808594 115.675781 C 267.144531 109.683594 256.121094 104.027344 246.835938 101.273438 C 239.070312 98.964844 232.699219 93.933594 229.367188 87.460938 C 217.734375 64.867188 234.683594 37.238281 235.410156 36.074219 C 238.054688 31.828125 243.644531 30.535156 247.886719 33.175781 C 252.136719 35.828125 253.429688 41.414062 250.785156 45.65625 C 247.375 51.191406 239.746094 68.039062 245.484375 79.171875 C 246.554688 81.25 248.980469 83.019531 251.984375 83.90625 C 262.902344 87.148438 274.652344 93.171875 287.09375 99.5625 C 301.582031 107.007812 316.5625 114.699219 328.382812 116.621094 C 332.203125 117.246094 335.8125 118.167969 339.121094 119.367188 C 358.164062 126.253906 366.777344 140.457031 370.652344 151.167969 C 375.148438 163.617188 374.945312 176.285156 372.730469 183.429688 C 367.792969 201.511719 371.292969 230.457031 371.328125 230.75 C 371.464844 231.886719 374.617188 258.132812 372.558594 273.171875 C 372.292969 275.070312 372.140625 276.625 372.054688 278.085938 L 370.351562 306.648438 C 370.070312 311.460938 366.074219 315.167969 361.320312 315.167969 " fill-opacity="1" fill-rule="nonzero"/><path fill="#040606" d="M 276.210938 338.773438 C 271.300781 338.601562 267.46875 334.414062 267.46875 329.511719 L 267.46875 312.210938 C 267.46875 298.085938 269.769531 284.179688 274.292969 270.890625 C 278.210938 259.40625 282.804688 242.875 283.898438 226.109375 C 283.898438 226.082031 283.898438 226.058594 283.898438 226.039062 C 284.007812 222.167969 287.234375 219.117188 291.105469 219.210938 L 295.160156 219.316406 C 299.128906 219.410156 302.257812 222.765625 302.019531 226.734375 C 302.019531 226.785156 302.007812 226.835938 302.007812 226.886719 C 301.367188 250.210938 303.078125 259.730469 305.0625 268.0625 C 305.652344 270.515625 306.097656 273.070312 306.394531 275.660156 L 309.59375 303.546875 C 310.160156 308.519531 306.59375 313.007812 301.617188 313.578125 C 296.648438 314.144531 292.15625 310.578125 291.585938 305.613281 L 289.15625 284.386719 C 286.796875 293.425781 285.597656 302.761719 285.597656 312.210938 L 285.597656 329.722656 C 285.597656 334.835938 281.359375 338.953125 276.210938 338.773438 " fill-opacity="1" fill-rule="nonzero"/><path fill="#040606" d="M 13.90625 315.167969 C 9.144531 315.167969 5.148438 311.460938 4.867188 306.648438 L 3.164062 278.085938 C 3.089844 276.632812 2.925781 275.070312 2.660156 273.171875 C 0.601562 258.132812 3.753906 231.886719 3.890625 230.773438 C 3.925781 230.457031 7.425781 201.511719 2.480469 183.429688 C 0.273438 176.285156 0.0703125 163.609375 4.566406 151.167969 C 8.441406 140.457031 17.054688 126.253906 36.097656 119.367188 C 39.40625 118.167969 43.023438 117.246094 46.847656 116.621094 C 58.65625 114.699219 73.636719 107.007812 88.125 99.5625 C 100.566406 93.171875 112.316406 87.148438 123.234375 83.90625 C 126.238281 83.019531 128.664062 81.25 129.734375 79.171875 C 136.601562 65.839844 124.558594 45.851562 124.433594 45.65625 C 121.78125 41.414062 123.082031 35.828125 127.332031 33.175781 C 131.574219 30.535156 137.164062 31.828125 139.808594 36.074219 C 140.535156 37.238281 157.484375 64.867188 145.851562 87.460938 C 142.519531 93.933594 136.148438 98.964844 128.390625 101.273438 C 119.097656 104.027344 108.074219 109.683594 96.410156 115.675781 C 80.667969 123.757812 64.394531 132.117188 49.761719 134.5 C 47.042969 134.945312 44.519531 135.585938 42.261719 136.398438 C 32.273438 140.003906 25.320312 147.046875 21.609375 157.3125 C 18.34375 166.351562 18.78125 174.875 19.816406 178.121094 L 19.917969 178.464844 C 25.878906 200.035156 22.039062 231.648438 21.875 232.988281 C 21.039062 239.886719 19.171875 260.164062 20.617188 270.710938 C 20.945312 273.085938 21.148438 275.085938 21.261719 277.011719 L 22.953125 305.582031 C 23.253906 310.570312 19.4375 314.851562 14.445312 315.152344 C 14.265625 315.160156 14.085938 315.167969 13.90625 315.167969 " fill-opacity="1" fill-rule="nonzero"/><path fill="#040606" d="M 98.351562 338.773438 C 93.441406 338.601562 89.621094 334.414062 89.621094 329.511719 L 89.621094 312.210938 C 89.621094 302.761719 88.429688 293.4375 86.0625 284.386719 L 83.632812 305.613281 C 83.0625 310.578125 78.570312 314.152344 73.59375 313.578125 C 68.625 313.007812 65.058594 308.519531 65.625 303.546875 L 68.824219 275.660156 C 69.121094 273.0625 69.566406 270.507812 70.148438 268.0625 C 72.140625 259.730469 73.851562 250.210938 73.210938 226.894531 C 73.210938 226.835938 73.199219 226.785156 73.199219 226.734375 C 72.960938 222.765625 76.082031 219.410156 80.058594 219.316406 L 84.113281 219.210938 C 87.988281 219.117188 91.210938 222.167969 91.320312 226.039062 C 91.320312 226.058594 91.320312 226.082031 91.320312 226.109375 C 92.414062 242.875 97.007812 259.40625 100.925781 270.890625 C 105.449219 284.179688 107.75 298.085938 107.75 312.210938 L 107.75 329.722656 C 107.75 334.835938 103.507812 338.953125 98.351562 338.773438 " fill-opacity="1" fill-rule="nonzero"/><path fill="#040606" d="M 186.054688 344.535156 C 181.050781 344.535156 176.988281 340.484375 176.988281 335.484375 L 176.988281 161.164062 C 176.988281 156.167969 181.050781 152.105469 186.054688 152.105469 C 191.054688 152.105469 195.109375 156.167969 195.109375 161.164062 L 195.109375 335.484375 C 195.109375 340.484375 191.054688 344.535156 186.054688 344.535156 " fill-opacity="1" fill-rule="nonzero"/></svg>