<svg id="visual" viewBox="0 0 960 540" width="960" height="540" xmlns="http://www.w3.org/2000/svg" xmlns:xlink="http://www.w3.org/1999/xlink" version="1.1"><rect x="0" y="0" width="960" height="540" fill="#FFFFFF"></rect><path d="M0 350L32 345C64 340 128 330 192 323.5C256 317 320 314 384 320.8C448 327.7 512 344.3 576 348.7C640 353 704 345 768 328.3C832 311.7 896 286.3 928 273.7L960 261L960 541L928 541C896 541 832 541 768 541C704 541 640 541 576 541C512 541 448 541 384 541C320 541 256 541 192 541C128 541 64 541 32 541L0 541Z" fill="#b9eddd"></path><path d="M0 375L32 385.3C64 395.7 128 416.3 192 426.3C256 436.3 320 435.7 384 421.3C448 407 512 379 576 376.5C640 374 704 397 768 398.7C832 400.3 896 380.7 928 370.8L960 361L960 541L928 541C896 541 832 541 768 541C704 541 640 541 576 541C512 541 448 541 384 541C320 541 256 541 192 541C128 541 64 541 32 541L0 541Z" fill="#85c5c3"></path><path d="M0 420L32 429C64 438 128 456 192 463.5C256 471 320 468 384 472.2C448 476.3 512 487.7 576 486.2C640 484.7 704 470.3 768 459.5C832 448.7 896 441.3 928 437.7L960 434L960 541L928 541C896 541 832 541 768 541C704 541 640 541 576 541C512 541 448 541 384 541C320 541 256 541 192 541C128 541 64 541 32 541L0 541Z" fill="#569daa"></path></svg>