<svg id="visual" viewBox="0 0 900 600" width="900" height="600" xmlns="http://www.w3.org/2000/svg" xmlns:xlink="http://www.w3.org/1999/xlink" version="1.1"><rect x="0" y="0" width="900" height="600" fill="#FFFFFF"></rect><path d="M0 375L30 381.2C60 387.3 120 399.7 180 417.5C240 435.3 300 458.7 360 465.7C420 472.7 480 463.3 540 453.5C600 443.7 660 433.3 720 430.2C780 427 840 431 870 433L900 435L900 601L870 601C840 601 780 601 720 601C660 601 600 601 540 601C480 601 420 601 360 601C300 601 240 601 180 601C120 601 60 601 30 601L0 601Z" fill="#b9eddd"></path><path d="M0 443L30 446.2C60 449.3 120 455.7 180 469C240 482.3 300 502.7 360 501.2C420 499.7 480 476.3 540 465C600 453.7 660 454.3 720 461.2C780 468 840 481 870 487.5L900 494L900 601L870 601C840 601 780 601 720 601C660 601 600 601 540 601C480 601 420 601 360 601C300 601 240 601 180 601C120 601 60 601 30 601L0 601Z" fill="#83b4b3"></path><path d="M0 541L30 543.2C60 545.3 120 549.7 180 545.8C240 542 300 530 360 523.2C420 516.3 480 514.7 540 521.8C600 529 660 545 720 547C780 549 840 537 870 531L900 525L900 601L870 601C840 601 780 601 720 601C660 601 600 601 540 601C480 601 420 601 360 601C300 601 240 601 180 601C120 601 60 601 30 601L0 601Z" fill="#577d86"></path></svg>