<svg xmlns="http://www.w3.org/2000/svg" xmlns:xlink="http://www.w3.org/1999/xlink" width="500" zoomAndPan="magnify" viewBox="0 0 375 374.999991" height="500" preserveAspectRatio="xMidYMid meet" version="1.0"><defs><clipPath id="5286f97910"><path d="M 71.484375 35 L 303.234375 35 L 303.234375 375 L 71.484375 375 Z M 71.484375 35 " clip-rule="nonzero"/></clipPath></defs><g clip-path="url(#5286f97910)"><path fill="#000000" d="M 272.25 35.789062 L 102.46875 35.789062 C 101.453125 35.789062 100.441406 35.839844 99.433594 35.941406 C 98.421875 36.039062 97.421875 36.191406 96.425781 36.390625 C 95.429688 36.589844 94.449219 36.835938 93.476562 37.132812 C 92.507812 37.425781 91.554688 37.769531 90.617188 38.15625 C 89.679688 38.546875 88.761719 38.980469 87.871094 39.460938 C 86.976562 39.941406 86.105469 40.460938 85.261719 41.027344 C 84.417969 41.589844 83.605469 42.195312 82.820312 42.839844 C 82.039062 43.484375 81.285156 44.164062 80.570312 44.882812 C 79.851562 45.601562 79.171875 46.351562 78.527344 47.136719 C 77.882812 47.921875 77.28125 48.738281 76.71875 49.582031 C 76.152344 50.425781 75.632812 51.296875 75.152344 52.191406 C 74.675781 53.085938 74.242188 54.003906 73.851562 54.941406 C 73.464844 55.878906 73.121094 56.835938 72.828125 57.808594 C 72.53125 58.777344 72.285156 59.761719 72.085938 60.757812 C 71.886719 61.753906 71.738281 62.757812 71.636719 63.769531 C 71.535156 64.777344 71.484375 65.792969 71.484375 66.808594 L 71.484375 343.890625 C 71.484375 344.90625 71.535156 345.917969 71.636719 346.929688 C 71.738281 347.9375 71.886719 348.941406 72.085938 349.9375 C 72.285156 350.933594 72.53125 351.917969 72.828125 352.890625 C 73.121094 353.863281 73.464844 354.816406 73.851562 355.753906 C 74.242188 356.691406 74.675781 357.609375 75.152344 358.503906 C 75.632812 359.402344 76.152344 360.269531 76.71875 361.113281 C 77.28125 361.960938 77.882812 362.773438 78.527344 363.558594 C 79.171875 364.34375 79.851562 365.09375 80.570312 365.8125 C 81.285156 366.53125 82.039062 367.214844 82.820312 367.859375 C 83.605469 368.5 84.417969 369.105469 85.261719 369.671875 C 86.105469 370.234375 86.976562 370.757812 87.871094 371.238281 C 88.761719 371.714844 89.679688 372.148438 90.617188 372.539062 C 91.554688 372.929688 92.507812 373.269531 93.476562 373.566406 C 94.449219 373.863281 95.429688 374.109375 96.425781 374.308594 C 97.421875 374.507812 98.421875 374.65625 99.433594 374.757812 C 100.441406 374.859375 101.453125 374.910156 102.46875 374.910156 L 272.25 374.910156 C 273.265625 374.910156 274.277344 374.859375 275.285156 374.757812 C 276.296875 374.65625 277.296875 374.507812 278.292969 374.308594 C 279.289062 374.109375 280.269531 373.863281 281.242188 373.566406 C 282.210938 373.269531 283.164062 372.929688 284.101562 372.539062 C 285.039062 372.148438 285.957031 371.714844 286.847656 371.238281 C 287.742188 370.757812 288.613281 370.234375 289.457031 369.671875 C 290.300781 369.105469 291.113281 368.503906 291.898438 367.859375 C 292.679688 367.214844 293.433594 366.53125 294.148438 365.8125 C 294.867188 365.09375 295.546875 364.34375 296.191406 363.558594 C 296.835938 362.773438 297.4375 361.960938 298 361.113281 C 298.566406 360.269531 299.085938 359.402344 299.566406 358.503906 C 300.042969 357.609375 300.476562 356.691406 300.867188 355.753906 C 301.253906 354.816406 301.597656 353.863281 301.890625 352.890625 C 302.1875 351.917969 302.433594 350.933594 302.632812 349.9375 C 302.832031 348.941406 302.980469 347.9375 303.082031 346.929688 C 303.183594 345.917969 303.234375 344.90625 303.234375 343.890625 L 303.234375 66.808594 C 303.234375 65.792969 303.183594 64.777344 303.082031 63.769531 C 302.980469 62.757812 302.832031 61.753906 302.632812 60.757812 C 302.433594 59.761719 302.1875 58.777344 301.890625 57.808594 C 301.597656 56.835938 301.253906 55.878906 300.867188 54.941406 C 300.476562 54.003906 300.042969 53.085938 299.566406 52.191406 C 299.085938 51.296875 298.566406 50.425781 298 49.582031 C 297.4375 48.738281 296.835938 47.921875 296.191406 47.136719 C 295.546875 46.351562 294.867188 45.601562 294.148438 44.882812 C 293.433594 44.164062 292.679688 43.484375 291.898438 42.839844 C 291.113281 42.195312 290.300781 41.589844 289.457031 41.027344 C 288.613281 40.460938 287.742188 39.941406 286.847656 39.460938 C 285.957031 38.980469 285.039062 38.546875 284.101562 38.15625 C 283.164062 37.769531 282.210938 37.425781 281.242188 37.132812 C 280.269531 36.835938 279.289062 36.589844 278.292969 36.390625 C 277.296875 36.191406 276.296875 36.039062 275.285156 35.941406 C 274.277344 35.839844 273.265625 35.789062 272.25 35.789062 Z M 285.40625 343.890625 C 285.40625 344.753906 285.320312 345.609375 285.152344 346.457031 C 284.980469 347.304688 284.730469 348.128906 284.402344 348.925781 C 284.070312 349.726562 283.664062 350.484375 283.183594 351.203125 C 282.703125 351.921875 282.160156 352.585938 281.550781 353.199219 C 280.9375 353.808594 280.273438 354.355469 279.554688 354.835938 C 278.839844 355.316406 278.082031 355.722656 277.28125 356.054688 C 276.484375 356.386719 275.664062 356.636719 274.816406 356.804688 C 273.96875 356.976562 273.113281 357.058594 272.25 357.0625 L 102.46875 357.0625 C 101.605469 357.058594 100.75 356.976562 99.902344 356.804688 C 99.054688 356.636719 98.234375 356.386719 97.4375 356.054688 C 96.636719 355.722656 95.878906 355.316406 95.164062 354.835938 C 94.445312 354.355469 93.78125 353.808594 93.167969 353.199219 C 92.558594 352.585938 92.015625 351.921875 91.535156 351.203125 C 91.054688 350.484375 90.648438 349.726562 90.316406 348.925781 C 89.988281 348.128906 89.738281 347.304688 89.566406 346.457031 C 89.398438 345.609375 89.3125 344.753906 89.3125 343.890625 L 89.3125 66.808594 C 89.3125 65.945312 89.398438 65.085938 89.566406 64.238281 C 89.738281 63.390625 89.988281 62.570312 90.316406 61.769531 C 90.648438 60.972656 91.054688 60.210938 91.535156 59.496094 C 92.015625 58.777344 92.558594 58.109375 93.167969 57.5 C 93.78125 56.886719 94.445312 56.339844 95.164062 55.859375 C 95.878906 55.378906 96.636719 54.976562 97.4375 54.644531 C 98.234375 54.3125 99.054688 54.0625 99.902344 53.890625 C 100.75 53.722656 101.605469 53.636719 102.46875 53.636719 L 272.25 53.636719 C 273.113281 53.636719 273.96875 53.722656 274.816406 53.890625 C 275.664062 54.0625 276.484375 54.3125 277.28125 54.644531 C 278.082031 54.976562 278.839844 55.378906 279.554688 55.859375 C 280.273438 56.339844 280.9375 56.886719 281.550781 57.5 C 282.160156 58.109375 282.703125 58.777344 283.183594 59.492188 C 283.664062 60.210938 284.070312 60.972656 284.402344 61.769531 C 284.730469 62.570312 284.980469 63.390625 285.152344 64.238281 C 285.320312 65.085938 285.40625 65.945312 285.40625 66.808594 Z M 285.40625 343.890625 " fill-opacity="1" fill-rule="nonzero"/></g><path fill="#000000" d="M 151.707031 17.9375 L 223.011719 17.9375 C 223.597656 17.9375 224.179688 17.882812 224.753906 17.765625 C 225.324219 17.652344 225.882812 17.484375 226.425781 17.257812 C 226.964844 17.035156 227.480469 16.761719 227.964844 16.433594 C 228.453125 16.109375 228.902344 15.738281 229.316406 15.324219 C 229.730469 14.910156 230.097656 14.460938 230.425781 13.972656 C 230.75 13.484375 231.023438 12.972656 231.25 12.429688 C 231.472656 11.886719 231.640625 11.332031 231.753906 10.753906 C 231.871094 10.179688 231.925781 9.601562 231.925781 9.015625 C 231.925781 8.429688 231.871094 7.847656 231.753906 7.273438 C 231.640625 6.699219 231.472656 6.140625 231.25 5.597656 C 231.023438 5.058594 230.75 4.542969 230.425781 4.054688 C 230.097656 3.570312 229.730469 3.117188 229.316406 2.703125 C 228.902344 2.289062 228.453125 1.917969 227.964844 1.59375 C 227.480469 1.269531 226.964844 0.992188 226.425781 0.769531 C 225.882812 0.546875 225.324219 0.375 224.753906 0.261719 C 224.179688 0.148438 223.597656 0.0898438 223.011719 0.0898438 L 151.707031 0.0898438 C 151.121094 0.0898438 150.539062 0.148438 149.964844 0.261719 C 149.390625 0.375 148.835938 0.546875 148.292969 0.769531 C 147.753906 0.992188 147.238281 1.269531 146.753906 1.59375 C 146.265625 1.917969 145.816406 2.289062 145.402344 2.703125 C 144.988281 3.117188 144.621094 3.570312 144.292969 4.054688 C 143.96875 4.542969 143.695312 5.058594 143.46875 5.597656 C 143.246094 6.140625 143.078125 6.699219 142.964844 7.273438 C 142.847656 7.847656 142.792969 8.429688 142.792969 9.015625 C 142.792969 9.601562 142.847656 10.179688 142.964844 10.753906 C 143.078125 11.332031 143.246094 11.886719 143.46875 12.429688 C 143.695312 12.972656 143.96875 13.484375 144.292969 13.972656 C 144.621094 14.460938 144.988281 14.910156 145.402344 15.324219 C 145.816406 15.738281 146.265625 16.109375 146.753906 16.433594 C 147.238281 16.761719 147.753906 17.035156 148.292969 17.257812 C 148.835938 17.484375 149.390625 17.652344 149.964844 17.765625 C 150.539062 17.882812 151.121094 17.9375 151.707031 17.9375 Z M 151.707031 17.9375 " fill-opacity="1" fill-rule="nonzero"/><path fill="#000000" d="M 240.839844 196.425781 L 196.273438 196.425781 L 196.273438 151.804688 C 196.273438 151.21875 196.214844 150.636719 196.101562 150.0625 C 195.988281 149.488281 195.816406 148.929688 195.59375 148.386719 C 195.371094 147.847656 195.097656 147.332031 194.769531 146.84375 C 194.445312 146.359375 194.074219 145.90625 193.664062 145.492188 C 193.25 145.078125 192.796875 144.707031 192.3125 144.382812 C 191.824219 144.058594 191.3125 143.78125 190.769531 143.558594 C 190.230469 143.332031 189.671875 143.164062 189.097656 143.050781 C 188.523438 142.9375 187.945312 142.878906 187.359375 142.878906 C 186.773438 142.878906 186.195312 142.9375 185.621094 143.050781 C 185.046875 143.164062 184.488281 143.332031 183.949219 143.558594 C 183.40625 143.78125 182.894531 144.058594 182.40625 144.382812 C 181.921875 144.707031 181.46875 145.078125 181.054688 145.492188 C 180.644531 145.90625 180.273438 146.359375 179.949219 146.84375 C 179.621094 147.332031 179.347656 147.847656 179.125 148.386719 C 178.902344 148.929688 178.730469 149.488281 178.617188 150.0625 C 178.503906 150.636719 178.445312 151.21875 178.445312 151.804688 L 178.445312 196.425781 L 133.878906 196.425781 C 133.292969 196.425781 132.714844 196.480469 132.140625 196.597656 C 131.566406 196.710938 131.007812 196.878906 130.46875 197.105469 C 129.925781 197.328125 129.414062 197.601562 128.925781 197.929688 C 128.441406 198.253906 127.988281 198.625 127.574219 199.039062 C 127.160156 199.453125 126.792969 199.902344 126.46875 200.390625 C 126.140625 200.878906 125.867188 201.390625 125.644531 201.933594 C 125.417969 202.476562 125.25 203.03125 125.136719 203.609375 C 125.023438 204.183594 124.964844 204.761719 124.964844 205.347656 C 124.964844 205.933594 125.023438 206.515625 125.136719 207.089844 C 125.25 207.664062 125.417969 208.222656 125.644531 208.765625 C 125.867188 209.304688 126.140625 209.820312 126.46875 210.304688 C 126.792969 210.792969 127.160156 211.246094 127.574219 211.660156 C 127.988281 212.074219 128.441406 212.441406 128.925781 212.769531 C 129.414062 213.09375 129.925781 213.371094 130.46875 213.59375 C 131.007812 213.816406 131.566406 213.988281 132.140625 214.101562 C 132.714844 214.214844 133.292969 214.273438 133.878906 214.273438 L 178.445312 214.273438 L 178.445312 258.894531 C 178.445312 259.480469 178.503906 260.058594 178.617188 260.636719 C 178.730469 261.210938 178.902344 261.769531 179.125 262.308594 C 179.347656 262.851562 179.621094 263.363281 179.949219 263.851562 C 180.273438 264.339844 180.644531 264.789062 181.054688 265.203125 C 181.46875 265.617188 181.921875 265.988281 182.40625 266.3125 C 182.894531 266.640625 183.40625 266.914062 183.949219 267.140625 C 184.488281 267.363281 185.046875 267.53125 185.621094 267.648438 C 186.195312 267.761719 186.773438 267.820312 187.359375 267.820312 C 187.945312 267.820312 188.523438 267.761719 189.097656 267.648438 C 189.671875 267.53125 190.230469 267.363281 190.769531 267.140625 C 191.3125 266.914062 191.824219 266.640625 192.3125 266.3125 C 192.796875 265.988281 193.25 265.617188 193.664062 265.203125 C 194.074219 264.789062 194.445312 264.339844 194.769531 263.851562 C 195.097656 263.363281 195.371094 262.851562 195.59375 262.308594 C 195.816406 261.769531 195.988281 261.210938 196.101562 260.636719 C 196.214844 260.058594 196.273438 259.480469 196.273438 258.894531 L 196.273438 214.273438 L 240.839844 214.273438 C 241.425781 214.273438 242.003906 214.214844 242.578125 214.101562 C 243.152344 213.988281 243.710938 213.816406 244.25 213.59375 C 244.792969 213.371094 245.304688 213.09375 245.792969 212.769531 C 246.277344 212.441406 246.730469 212.074219 247.144531 211.660156 C 247.558594 211.246094 247.925781 210.792969 248.25 210.304688 C 248.578125 209.820312 248.851562 209.304688 249.074219 208.765625 C 249.300781 208.222656 249.46875 207.664062 249.582031 207.089844 C 249.695312 206.515625 249.753906 205.933594 249.753906 205.347656 C 249.753906 204.761719 249.695312 204.183594 249.582031 203.609375 C 249.46875 203.03125 249.300781 202.476562 249.074219 201.933594 C 248.851562 201.390625 248.578125 200.878906 248.25 200.390625 C 247.925781 199.902344 247.558594 199.453125 247.144531 199.039062 C 246.730469 198.625 246.277344 198.253906 245.792969 197.929688 C 245.304688 197.601562 244.792969 197.328125 244.25 197.105469 C 243.710938 196.878906 243.152344 196.710938 242.578125 196.597656 C 242.003906 196.480469 241.425781 196.425781 240.839844 196.425781 Z M 240.839844 196.425781 " fill-opacity="1" fill-rule="nonzero"/></svg>