<svg xmlns="http://www.w3.org/2000/svg" xmlns:xlink="http://www.w3.org/1999/xlink" width="500" zoomAndPan="magnify" viewBox="0 0 375 374.999991" height="500" preserveAspectRatio="xMidYMid meet" version="1.0"><defs><clipPath id="98bfd965c1"><path d="M 331.640625 106.519531 L 374.984375 106.519531 L 374.984375 268.398438 L 331.640625 268.398438 Z M 331.640625 106.519531 " clip-rule="nonzero"/></clipPath><clipPath id="0868b4381b"><path d="M 86 41.574219 L 288 41.574219 L 288 333.320312 L 86 333.320312 Z M 86 41.574219 " clip-rule="nonzero"/></clipPath></defs><path fill="#000000" d="M 65.886719 208.976562 C 63.421875 210.527344 60.132812 209.605469 58.878906 206.976562 C 56.015625 200.96875 54.453125 194.382812 54.320312 187.664062 C 54.183594 180.945312 55.488281 174.300781 58.113281 168.183594 C 59.257812 165.507812 62.511719 164.457031 65.035156 165.90625 L 65.070312 165.929688 C 67.214844 167.15625 68.125 169.796875 67.148438 172.066406 C 65.078125 176.902344 64.046875 182.152344 64.152344 187.46875 C 64.261719 192.785156 65.496094 197.992188 67.757812 202.742188 C 68.820312 204.96875 68.015625 207.644531 65.925781 208.957031 L 65.886719 208.976562 " fill-opacity="1" fill-rule="nonzero"/><path fill="#000000" d="M 49.5625 232.714844 C 47.304688 234.390625 44.082031 233.835938 42.550781 231.480469 C 34.03125 218.367188 29.554688 203.25 29.554688 187.445312 C 29.554688 171.644531 34.03125 156.527344 42.550781 143.414062 C 44.082031 141.054688 47.304688 140.503906 49.5625 142.179688 L 49.625 142.226562 C 51.695312 143.765625 52.183594 146.640625 50.78125 148.800781 C 43.316406 160.3125 39.390625 173.578125 39.390625 187.445312 C 39.390625 201.316406 43.316406 214.582031 50.78125 226.09375 C 52.183594 228.257812 51.695312 231.132812 49.625 232.667969 L 49.5625 232.714844 " fill-opacity="1" fill-rule="nonzero"/><path fill="#000000" d="M 42.023438 266.519531 C 40.230469 268.667969 37.007812 268.875 34.945312 266.984375 C 12.683594 246.527344 0.015625 217.824219 0.015625 187.445312 C 0.015625 157.070312 12.683594 128.367188 34.945312 107.910156 C 37.007812 106.019531 40.230469 106.226562 42.023438 108.375 L 42.050781 108.40625 C 43.726562 110.410156 43.535156 113.378906 41.609375 115.144531 C 21.371094 133.742188 9.855469 159.835938 9.855469 187.445312 C 9.855469 215.058594 21.371094 241.152344 41.609375 259.75 C 43.535156 261.515625 43.726562 264.484375 42.050781 266.488281 L 42.023438 266.519531 " fill-opacity="1" fill-rule="nonzero"/><path fill="#000000" d="M 309.109375 208.976562 C 311.578125 210.527344 314.867188 209.605469 316.117188 206.976562 C 318.984375 200.96875 320.546875 194.382812 320.679688 187.664062 C 320.8125 180.945312 319.511719 174.300781 316.890625 168.183594 C 315.738281 165.507812 312.488281 164.457031 309.960938 165.90625 L 309.925781 165.929688 C 307.785156 167.15625 306.878906 169.796875 307.847656 172.066406 C 309.921875 176.902344 310.949219 182.152344 310.84375 187.46875 C 310.738281 192.785156 309.503906 197.992188 307.242188 202.742188 C 306.179688 204.96875 306.984375 207.644531 309.078125 208.957031 L 309.109375 208.976562 " fill-opacity="1" fill-rule="nonzero"/><path fill="#000000" d="M 309.109375 208.976562 C 311.578125 210.527344 314.867188 209.605469 316.117188 206.976562 C 318.984375 200.96875 320.546875 194.382812 320.679688 187.664062 C 320.8125 180.945312 319.511719 174.300781 316.890625 168.183594 C 315.738281 165.507812 312.488281 164.457031 309.960938 165.90625 L 309.925781 165.929688 C 307.785156 167.15625 306.878906 169.796875 307.847656 172.066406 C 309.921875 176.902344 310.949219 182.152344 310.84375 187.46875 C 310.738281 192.785156 309.503906 197.992188 307.242188 202.742188 C 306.179688 204.96875 306.984375 207.644531 309.078125 208.957031 L 309.109375 208.976562 " fill-opacity="1" fill-rule="nonzero"/><path fill="#000000" d="M 325.441406 232.714844 C 327.695312 234.390625 330.917969 233.835938 332.445312 231.480469 C 340.96875 218.367188 345.445312 203.25 345.445312 187.445312 C 345.445312 171.644531 340.96875 156.527344 332.445312 143.414062 C 330.917969 141.054688 327.695312 140.503906 325.441406 142.179688 L 325.375 142.226562 C 323.304688 143.765625 322.8125 146.640625 324.21875 148.800781 C 331.683594 160.3125 335.609375 173.578125 335.609375 187.445312 C 335.609375 201.316406 331.683594 214.582031 324.21875 226.09375 C 322.8125 228.257812 323.304688 231.132812 325.375 232.667969 L 325.441406 232.714844 " fill-opacity="1" fill-rule="nonzero"/><g clip-path="url(#98bfd965c1)"><path fill="#000000" d="M 332.976562 266.519531 C 334.769531 268.667969 337.992188 268.875 340.054688 266.984375 C 362.316406 246.527344 374.984375 217.824219 374.984375 187.445312 C 374.984375 157.070312 362.316406 128.367188 340.054688 107.910156 C 337.992188 106.019531 334.769531 106.226562 332.976562 108.375 L 332.949219 108.40625 C 331.273438 110.410156 331.464844 113.378906 333.390625 115.144531 C 353.628906 133.742188 365.144531 159.835938 365.144531 187.445312 C 365.144531 215.058594 353.628906 241.152344 333.390625 259.75 C 331.464844 261.515625 331.273438 264.484375 332.949219 266.488281 L 332.976562 266.519531 " fill-opacity="1" fill-rule="nonzero"/></g><path fill="#000000" d="M 249.796875 161.734375 C 250.847656 156.40625 251.714844 151.027344 252.167969 145.617188 C 252.621094 140.1875 252.394531 134.863281 251.628906 129.472656 C 250.457031 121.226562 247.085938 113.175781 242.054688 106.53125 C 236.875 99.699219 230.402344 93.8125 222.617188 90.074219 C 215.136719 86.484375 206.96875 84.574219 198.671875 84.375 C 184.238281 84.03125 170.429688 89.429688 159.394531 98.542969 C 154.601562 102.503906 150.441406 107.382812 147.207031 112.683594 C 144.273438 117.5 141.945312 123.003906 141.066406 128.605469 C 140.140625 134.515625 140.109375 140.683594 142.308594 146.351562 C 143.542969 149.527344 145.035156 152.21875 147.023438 154.964844 C 149.054688 157.777344 151.222656 160.503906 153.050781 163.460938 C 153.929688 164.878906 154.707031 166.347656 155.367188 167.878906 C 155.09375 167.226562 154.816406 166.574219 154.542969 165.921875 C 155.496094 168.210938 156.128906 170.585938 156.480469 173.039062 C 156.382812 172.3125 156.285156 171.585938 156.1875 170.859375 C 156.554688 173.679688 156.589844 176.503906 156.246094 179.328125 C 156.34375 178.601562 156.441406 177.875 156.539062 177.148438 C 155.933594 181.644531 154.476562 185.933594 152.722656 190.101562 C 153 189.449219 153.277344 188.796875 153.550781 188.144531 C 151.871094 192.085938 149.925781 195.90625 148.21875 199.832031 C 146.121094 204.644531 144.207031 209.460938 144.296875 214.820312 C 144.484375 226.238281 152.144531 236.953125 163.289062 239.976562 C 173.878906 242.851562 185.675781 239.394531 194.273438 232.933594 C 202.585938 226.683594 208.894531 218.195312 211.761719 208.117188 C 215.136719 196.238281 213.386719 183.101562 207.28125 172.40625 C 205.15625 168.683594 199.761719 167.085938 196.066406 169.46875 C 192.300781 171.894531 190.851562 176.695312 193.125 180.679688 C 193.875 181.996094 194.550781 183.347656 195.148438 184.738281 C 194.875 184.085938 194.597656 183.433594 194.324219 182.78125 C 195.667969 186.007812 196.570312 189.367188 197.039062 192.828125 C 196.941406 192.101562 196.84375 191.375 196.746094 190.648438 C 197.15625 193.964844 197.164062 197.292969 196.75 200.609375 C 196.847656 199.882812 196.945312 199.15625 197.042969 198.429688 C 196.589844 201.769531 195.714844 205.003906 194.410156 208.109375 C 194.6875 207.457031 194.960938 206.804688 195.238281 206.152344 C 194.308594 208.296875 193.207031 210.355469 191.910156 212.304688 C 191.605469 212.761719 191.289062 213.210938 190.964844 213.65625 C 190.804688 213.878906 190.636719 214.09375 190.472656 214.316406 C 191.894531 212.347656 191.222656 213.347656 190.859375 213.789062 C 190.117188 214.691406 189.335938 215.558594 188.515625 216.390625 C 187.742188 217.175781 186.9375 217.925781 186.105469 218.640625 C 185.84375 218.863281 185.578125 219.082031 185.3125 219.296875 C 185.078125 219.488281 184.246094 220.132812 185.332031 219.292969 C 186.496094 218.390625 184.980469 219.527344 184.664062 219.746094 C 182.640625 221.144531 180.488281 222.328125 178.230469 223.304688 C 178.882812 223.027344 179.535156 222.753906 180.1875 222.476562 C 177.601562 223.554688 174.925781 224.316406 172.144531 224.691406 C 172.871094 224.59375 173.597656 224.496094 174.324219 224.398438 C 172.183594 224.652344 170.058594 224.667969 167.917969 224.382812 C 168.644531 224.480469 169.371094 224.578125 170.097656 224.675781 C 168.429688 224.421875 166.832031 223.992188 165.265625 223.359375 C 165.921875 223.632812 166.574219 223.910156 167.226562 224.183594 C 166.316406 223.789062 165.445312 223.335938 164.625 222.777344 C 164.433594 222.644531 164.234375 222.449219 164.027344 222.347656 C 164.144531 222.40625 165.605469 223.65625 164.816406 222.929688 C 164.390625 222.542969 163.972656 222.164062 163.574219 221.75 C 163.214844 221.371094 162.890625 220.972656 162.550781 220.582031 C 161.933594 219.867188 163.621094 222.105469 163.117188 221.296875 C 162.976562 221.070312 162.816406 220.859375 162.671875 220.636719 C 162.042969 219.671875 161.515625 218.65625 161.058594 217.605469 C 161.332031 218.257812 161.609375 218.910156 161.886719 219.5625 C 161.246094 218.011719 160.804688 216.421875 160.5625 214.765625 C 160.660156 215.492188 160.757812 216.21875 160.855469 216.941406 C 160.65625 215.363281 160.652344 213.800781 160.84375 212.21875 C 160.746094 212.945312 160.648438 213.667969 160.550781 214.398438 C 160.933594 211.769531 161.875 209.28125 162.898438 206.847656 C 162.625 207.5 162.347656 208.152344 162.074219 208.804688 C 163.996094 204.308594 166.21875 199.945312 168.121094 195.4375 C 170.394531 190.050781 172.050781 184.726562 172.695312 178.890625 C 173.273438 173.695312 172.699219 168.042969 170.949219 163.105469 C 169.382812 158.683594 167.109375 154.789062 164.359375 151.015625 C 161.949219 147.707031 159.214844 144.515625 157.574219 140.726562 C 157.851562 141.378906 158.125 142.03125 158.398438 142.683594 C 157.597656 140.769531 157.054688 138.773438 156.761719 136.71875 C 156.859375 137.445312 156.957031 138.171875 157.054688 138.898438 C 156.726562 136.457031 156.75 134 157.058594 131.554688 C 156.960938 132.28125 156.863281 133.007812 156.765625 133.734375 C 157.1875 130.617188 158.0625 127.589844 159.269531 124.6875 C 158.996094 125.339844 158.71875 125.992188 158.445312 126.644531 C 159.601562 123.914062 161.039062 121.316406 162.714844 118.871094 C 163.164062 118.21875 163.636719 117.585938 164.105469 116.949219 C 162.210938 119.535156 163.816406 117.335938 164.320312 116.730469 C 165.335938 115.523438 166.40625 114.367188 167.527344 113.257812 C 168.667969 112.128906 169.863281 111.054688 171.105469 110.035156 C 171.425781 109.773438 171.789062 109.53125 172.089844 109.25 C 171.703125 109.546875 171.316406 109.847656 170.929688 110.144531 C 171.097656 110.015625 171.265625 109.890625 171.433594 109.765625 C 172.113281 109.257812 172.804688 108.769531 173.507812 108.296875 C 176.289062 106.433594 179.246094 104.847656 182.328125 103.539062 C 181.671875 103.816406 181.019531 104.089844 180.367188 104.367188 C 184.410156 102.683594 188.632812 101.523438 192.96875 100.914062 C 192.242188 101.011719 191.515625 101.109375 190.789062 101.207031 C 195.28125 100.609375 199.816406 100.625 204.308594 101.21875 C 203.582031 101.121094 202.855469 101.027344 202.128906 100.929688 C 206.367188 101.523438 210.535156 102.578125 214.484375 104.234375 C 213.832031 103.957031 213.179688 103.683594 212.527344 103.40625 C 215.152344 104.535156 217.664062 105.898438 220.027344 107.503906 C 220.632812 107.914062 221.226562 108.339844 221.8125 108.777344 C 222.882812 109.570312 220.5 107.726562 221.253906 108.347656 C 221.511719 108.5625 221.773438 108.765625 222.027344 108.980469 C 223.148438 109.917969 224.226562 110.910156 225.253906 111.949219 C 226.238281 112.945312 227.171875 113.980469 228.0625 115.058594 C 228.273438 115.3125 228.46875 115.585938 228.6875 115.832031 C 227.023438 113.9375 228.011719 114.949219 228.375 115.445312 C 228.769531 115.980469 229.152344 116.523438 229.519531 117.074219 C 231.152344 119.503906 232.53125 122.085938 233.671875 124.78125 C 233.398438 124.128906 233.121094 123.476562 232.847656 122.824219 C 234.308594 126.363281 235.273438 130.039062 235.816406 133.832031 C 235.71875 133.105469 235.621094 132.378906 235.523438 131.652344 C 236.355469 137.855469 236.066406 144.101562 235.261719 150.289062 C 235.359375 149.5625 235.457031 148.835938 235.554688 148.109375 C 235.132812 151.214844 234.59375 154.300781 233.988281 157.375 C 233.558594 159.558594 233.660156 161.71875 234.8125 163.691406 C 235.808594 165.390625 237.757812 167.011719 239.714844 167.457031 C 243.777344 168.382812 248.914062 166.230469 249.796875 161.734375 " fill-opacity="1" fill-rule="nonzero"/><path fill="#000000" d="M 175.726562 310.941406 C 175.742188 310.925781 175.757812 310.917969 175.769531 310.902344 C 175.804688 310.875 175.839844 310.84375 175.875 310.816406 C 175.140625 311.332031 175.046875 311.417969 175.1875 311.332031 C 175.246094 311.289062 175.308594 311.25 175.367188 311.207031 C 175.488281 311.121094 175.605469 311.03125 175.726562 310.941406 " fill-opacity="1" fill-rule="nonzero"/><g clip-path="url(#0868b4381b)"><path fill="#000000" d="M 137.910156 308.785156 C 138.027344 308.933594 138.109375 309.046875 138.097656 309.058594 C 138.101562 309.058594 138.027344 308.949219 137.910156 308.785156 Z M 286.179688 119.476562 C 283.367188 102.25 276.289062 85.964844 265.46875 72.277344 C 254.992188 59.011719 236.738281 46.808594 220.058594 43.703125 C 145.839844 29.875 109.769531 86.710938 93.035156 117.78125 C 89.777344 123.828125 85.792969 129.304688 86.039062 133.039062 C 86.582031 141.234375 105.53125 138.867188 112.195312 125.855469 C 127.757812 95.476562 140.199219 76.128906 171.917969 62.8125 C 177.792969 60.457031 184.199219 59.394531 190.460938 58.457031 C 197.296875 57.640625 204.210938 57.621094 211.050781 58.433594 C 216.3125 59.226562 221.492188 60.523438 226.441406 62.492188 C 229.828125 63.984375 233.105469 65.710938 236.238281 67.683594 C 237.921875 68.75 239.550781 69.890625 241.152344 71.070312 C 241.453125 71.3125 241.75 71.550781 242.046875 71.792969 C 242.820312 72.425781 243.582031 73.074219 244.328125 73.738281 C 247.277344 76.351562 250.019531 79.191406 252.539062 82.21875 C 252.84375 82.582031 253.140625 82.945312 253.4375 83.3125 C 253.496094 83.386719 253.628906 83.558594 253.773438 83.734375 C 253.910156 83.921875 254.046875 84.101562 254.101562 84.175781 C 254.421875 84.605469 254.734375 85.03125 255.042969 85.464844 C 256.214844 87.109375 257.328125 88.792969 258.378906 90.515625 C 260.5625 94.085938 262.480469 97.816406 264.15625 101.652344 C 267.304688 109.378906 269.445312 117.472656 270.660156 125.726562 C 271.8125 135.105469 271.769531 144.59375 270.609375 153.972656 C 269.316406 162.878906 267.074219 171.707031 263.679688 180.050781 C 259.453125 189.71875 253.734375 198.632812 247.640625 207.21875 C 240.53125 217.246094 232.949219 226.929688 225.816406 236.945312 C 222.289062 241.898438 218.824219 246.898438 215.261719 251.832031 C 211.636719 256.851562 208.03125 261.890625 204.691406 267.109375 C 199.007812 275.992188 194.367188 285.488281 188.855469 294.476562 C 187.335938 296.953125 185.757812 299.394531 184.074219 301.765625 C 183.660156 302.347656 183.238281 302.925781 182.808594 303.496094 C 182.910156 303.371094 183.027344 303.230469 183.164062 303.0625 C 183 303.261719 182.84375 303.464844 182.683594 303.667969 C 182.515625 303.890625 182.292969 304.15625 182.246094 304.210938 C 181.488281 305.144531 180.710938 306.066406 179.894531 306.949219 C 179.023438 307.902344 178.117188 308.820312 177.164062 309.691406 C 176.742188 310.078125 176.3125 310.449219 175.875 310.816406 C 176.003906 310.722656 176.15625 310.617188 176.328125 310.496094 C 176.125 310.640625 175.925781 310.789062 175.726562 310.941406 C 175.535156 311.09375 175.292969 311.265625 175.1875 311.332031 C 173.351562 312.621094 171.402344 313.726562 169.371094 314.65625 C 166.890625 315.609375 164.335938 316.304688 161.71875 316.742188 C 159.003906 317.019531 156.277344 317.023438 153.5625 316.75 C 151.054688 316.328125 148.601562 315.679688 146.226562 314.769531 C 144.769531 314.09375 143.355469 313.328125 142.007812 312.445312 C 141.664062 312.21875 141.328125 311.980469 140.992188 311.742188 C 140.261719 311.113281 139.546875 310.480469 138.875 309.789062 C 138.535156 309.4375 138.207031 309.082031 137.886719 308.714844 C 137.820312 308.628906 137.710938 308.488281 137.640625 308.398438 C 137.128906 307.667969 136.359375 306.574219 136.285156 306.460938 C 135.34375 304.996094 134.503906 303.476562 133.777344 301.902344 C 133.492188 301.144531 133.238281 300.382812 133.011719 299.609375 C 131.707031 293.167969 135.957031 285.289062 141.785156 278.550781 C 144.964844 274.878906 152.398438 266.597656 147.730469 261.21875 C 141.128906 253.605469 129.648438 260.332031 125.175781 266.457031 C 118.953125 274.972656 114.964844 285.296875 115.832031 296.074219 C 116.601562 305.625 120.863281 315.109375 127.75 321.851562 C 141.609375 335.40625 164.640625 336.6875 180.996094 327.074219 C 189.632812 322 195.839844 313.960938 201.179688 305.664062 C 206.222656 297.839844 210.460938 289.550781 215.121094 281.503906 C 220.597656 272.050781 227.160156 263.320312 233.496094 254.441406 C 240.019531 245.300781 246.539062 236.179688 253.25 227.175781 C 259.347656 218.988281 265.449219 210.765625 270.710938 202.007812 C 275.890625 193.390625 280.085938 184.199219 282.90625 174.542969 C 288.121094 156.671875 289.179688 137.824219 286.179688 119.476562 " fill-opacity="1" fill-rule="nonzero"/></g><path fill="#000000" d="M 182.683594 303.667969 C 182.703125 303.640625 182.722656 303.617188 182.742188 303.59375 C 182.765625 303.5625 182.785156 303.53125 182.808594 303.496094 C 182.320312 304.101562 182.203125 304.257812 182.246094 304.210938 C 182.304688 304.140625 182.363281 304.070312 182.421875 304.003906 C 182.507812 303.890625 182.597656 303.777344 182.683594 303.667969 " fill-opacity="1" fill-rule="nonzero"/></svg>