<svg xmlns="http://www.w3.org/2000/svg" xmlns:xlink="http://www.w3.org/1999/xlink" width="500" zoomAndPan="magnify" viewBox="0 0 375 374.999991" height="500" preserveAspectRatio="xMidYMid meet" version="1.0"><defs><clipPath id="5e51d2f537"><path d="M 0 74.046875 L 375 74.046875 L 375 329.796875 L 0 329.796875 Z M 0 74.046875 " clip-rule="nonzero"/></clipPath></defs><g clip-path="url(#5e51d2f537)"><path fill="#000000" d="M 187.5 74.046875 C 102.273438 74.046875 29.488281 127.070312 0 201.921875 C 29.488281 276.769531 102.273438 329.796875 187.5 329.796875 C 272.8125 329.796875 345.511719 276.769531 375 201.921875 C 345.511719 127.070312 272.8125 74.046875 187.5 74.046875 Z M 187.5 287.171875 C 140.453125 287.171875 102.273438 248.980469 102.273438 201.921875 C 102.273438 154.863281 140.453125 116.671875 187.5 116.671875 C 234.546875 116.671875 272.726562 154.863281 272.726562 201.921875 C 272.726562 248.980469 234.546875 287.171875 187.5 287.171875 Z M 187.5 150.769531 C 159.289062 150.769531 136.363281 173.703125 136.363281 201.921875 C 136.363281 230.140625 159.289062 253.070312 187.5 253.070312 C 215.710938 253.070312 238.636719 230.140625 238.636719 201.921875 C 238.636719 173.703125 215.710938 150.769531 187.5 150.769531 Z M 187.5 150.769531 " fill-opacity="1" fill-rule="nonzero"/></g></svg>