<svg xmlns="http://www.w3.org/2000/svg" xmlns:xlink="http://www.w3.org/1999/xlink" width="201" zoomAndPan="magnify" viewBox="0 0 151.5 151.499993" height="201" preserveAspectRatio="xMidYMid meet" version="1.0"><defs><clipPath id="f8f6e184e0"><path d="M 0 0 L 151 0 L 151 151 L 0 151 Z M 0 0 " clip-rule="nonzero"/></clipPath></defs><g clip-path="url(#f8f6e184e0)"><path fill="#2b2b2b" d="M 75.75 0 C 33.980469 0 0 33.980469 0 75.75 C 0 99.308594 10.625 121.058594 29.121094 135.410156 C 39.769531 143.785156 52.441406 149.121094 65.675781 150.808594 C 68.953125 151.273438 72.351562 151.5 75.75 151.5 C 79.148438 151.5 82.546875 151.273438 85.738281 150.816406 C 99.058594 149.121094 111.730469 143.796875 122.359375 135.429688 C 140.882812 121.058594 151.5 99.296875 151.5 75.75 C 151.5 33.980469 117.511719 0 75.75 0 Z M 119.035156 123.992188 L 119.035156 116.65625 C 119.035156 106.050781 99.664062 97.394531 75.75 97.394531 C 51.835938 97.394531 32.464844 106.050781 32.464844 116.65625 L 32.464844 123.992188 C 18.710938 111.753906 10.820312 94.449219 10.820312 75.75 C 10.820312 39.941406 39.941406 10.820312 75.75 10.820312 C 111.558594 10.820312 140.679688 39.941406 140.679688 75.75 C 140.679688 94.4375 132.800781 111.71875 119.035156 123.992188 Z M 119.035156 123.992188 " fill-opacity="1" fill-rule="nonzero"/></g><path fill="#2b2b2b" d="M 102.804688 59.519531 C 102.804688 60.402344 102.761719 61.289062 102.671875 62.167969 C 102.585938 63.050781 102.457031 63.925781 102.285156 64.796875 C 102.109375 65.664062 101.894531 66.523438 101.636719 67.371094 C 101.382812 68.21875 101.082031 69.050781 100.746094 69.871094 C 100.40625 70.6875 100.027344 71.488281 99.609375 72.269531 C 99.191406 73.050781 98.738281 73.8125 98.246094 74.546875 C 97.753906 75.285156 97.226562 75.996094 96.664062 76.679688 C 96.101562 77.367188 95.507812 78.019531 94.878906 78.648438 C 94.253906 79.273438 93.597656 79.867188 92.914062 80.429688 C 92.226562 80.992188 91.515625 81.519531 90.78125 82.011719 C 90.042969 82.503906 89.285156 82.960938 88.503906 83.378906 C 87.722656 83.792969 86.921875 84.171875 86.101562 84.511719 C 85.285156 84.851562 84.449219 85.148438 83.601562 85.40625 C 82.753906 85.664062 81.898438 85.878906 81.027344 86.050781 C 80.160156 86.222656 79.285156 86.355469 78.402344 86.441406 C 77.519531 86.527344 76.636719 86.570312 75.75 86.570312 C 74.863281 86.570312 73.980469 86.527344 73.097656 86.441406 C 72.214844 86.355469 71.339844 86.222656 70.472656 86.050781 C 69.601562 85.878906 68.746094 85.664062 67.898438 85.40625 C 67.050781 85.148438 66.214844 84.851562 65.398438 84.511719 C 64.578125 84.171875 63.777344 83.792969 62.996094 83.378906 C 62.214844 82.960938 61.457031 82.503906 60.71875 82.011719 C 59.984375 81.519531 59.273438 80.992188 58.585938 80.429688 C 57.902344 79.867188 57.246094 79.273438 56.621094 78.648438 C 55.992188 78.019531 55.398438 77.367188 54.835938 76.679688 C 54.273438 75.996094 53.746094 75.285156 53.253906 74.546875 C 52.761719 73.8125 52.308594 73.050781 51.890625 72.269531 C 51.472656 71.488281 51.09375 70.6875 50.753906 69.871094 C 50.417969 69.050781 50.117188 68.21875 49.863281 67.371094 C 49.605469 66.523438 49.390625 65.664062 49.214844 64.796875 C 49.042969 63.925781 48.914062 63.050781 48.828125 62.167969 C 48.738281 61.289062 48.695312 60.402344 48.695312 59.519531 C 48.695312 58.632812 48.738281 57.746094 48.828125 56.867188 C 48.914062 55.984375 49.042969 55.109375 49.214844 54.238281 C 49.390625 53.371094 49.605469 52.511719 49.863281 51.664062 C 50.117188 50.816406 50.417969 49.984375 50.753906 49.164062 C 51.09375 48.347656 51.472656 47.546875 51.890625 46.765625 C 52.308594 45.984375 52.761719 45.222656 53.253906 44.488281 C 53.746094 43.75 54.273438 43.039062 54.835938 42.355469 C 55.398438 41.671875 55.992188 41.015625 56.621094 40.386719 C 57.246094 39.761719 57.902344 39.167969 58.585938 38.605469 C 59.273438 38.042969 59.984375 37.515625 60.71875 37.023438 C 61.457031 36.53125 62.214844 36.078125 62.996094 35.660156 C 63.777344 35.242188 64.578125 34.863281 65.398438 34.523438 C 66.214844 34.183594 67.050781 33.886719 67.898438 33.628906 C 68.746094 33.371094 69.601562 33.15625 70.472656 32.984375 C 71.339844 32.8125 72.214844 32.679688 73.097656 32.59375 C 73.980469 32.507812 74.863281 32.464844 75.75 32.464844 C 76.636719 32.464844 77.519531 32.507812 78.402344 32.59375 C 79.285156 32.679688 80.160156 32.8125 81.027344 32.984375 C 81.898438 33.15625 82.753906 33.371094 83.601562 33.628906 C 84.449219 33.886719 85.285156 34.183594 86.101562 34.523438 C 86.921875 34.863281 87.722656 35.242188 88.503906 35.660156 C 89.285156 36.078125 90.042969 36.53125 90.78125 37.023438 C 91.515625 37.515625 92.226562 38.042969 92.914062 38.605469 C 93.597656 39.167969 94.253906 39.761719 94.878906 40.386719 C 95.507812 41.015625 96.101562 41.671875 96.664062 42.355469 C 97.226562 43.039062 97.753906 43.75 98.246094 44.488281 C 98.738281 45.222656 99.191406 45.984375 99.609375 46.765625 C 100.027344 47.546875 100.40625 48.347656 100.746094 49.164062 C 101.082031 49.984375 101.382812 50.816406 101.636719 51.664062 C 101.894531 52.511719 102.109375 53.371094 102.285156 54.238281 C 102.457031 55.109375 102.585938 55.984375 102.671875 56.867188 C 102.761719 57.746094 102.804688 58.632812 102.804688 59.519531 Z M 102.804688 59.519531 " fill-opacity="1" fill-rule="nonzero"/></svg>