<svg id="visual" viewBox="0 0 900 600" width="900" height="600" xmlns="http://www.w3.org/2000/svg" xmlns:xlink="http://www.w3.org/1999/xlink" version="1.1"><path d="M0 157L37.5 175C75 193 150 229 225 244C300 259 375 253 450 242C525 231 600 215 675 211C750 207 825 215 862.5 219L900 223L900 0L862.5 0C825 0 750 0 675 0C600 0 525 0 450 0C375 0 300 0 225 0C150 0 75 0 37.5 0L0 0Z" fill="#e6e6e6"></path><path d="M0 265L37.5 279C75 293 150 321 225 334C300 347 375 345 450 333C525 321 600 299 675 294C750 289 825 301 862.5 307L900 313L900 221L862.5 217C825 213 750 205 675 209C600 213 525 229 450 240C375 251 300 257 225 242C150 227 75 191 37.5 173L0 155Z" fill="#d1d1d1"></path><path d="M0 367L37.5 379C75 391 150 415 225 427C300 439 375 439 450 427C525 415 600 391 675 391C750 391 825 415 862.5 427L900 439L900 311L862.5 305C825 299 750 287 675 292C600 297 525 319 450 331C375 343 300 345 225 332C150 319 75 291 37.5 277L0 263Z" fill="#bdbdbd"></path><path d="M0 601L37.5 601C75 601 150 601 225 601C300 601 375 601 450 601C525 601 600 601 675 601C750 601 825 601 862.5 601L900 601L900 437L862.5 425C825 413 750 389 675 389C600 389 525 413 450 425C375 437 300 437 225 425C150 413 75 389 37.5 377L0 365Z" fill="#a8a8a8"></path></svg>