<svg xmlns="http://www.w3.org/2000/svg" xmlns:xlink="http://www.w3.org/1999/xlink" width="500" zoomAndPan="magnify" viewBox="0 0 375 374.999991" height="500" preserveAspectRatio="xMidYMid meet" version="1.0"><defs><clipPath id="fdc904bd5a"><path d="M 22.019531 138 L 354.777344 138 L 354.777344 369.453125 L 22.019531 369.453125 Z M 22.019531 138 " clip-rule="nonzero"/></clipPath><clipPath id="bc0f334f49"><path d="M 288.023438 54.683594 L 375 54.683594 L 375 127 L 288.023438 127 Z M 288.023438 54.683594 " clip-rule="nonzero"/></clipPath><clipPath id="d6587c9c82"><path d="M 184 5.390625 L 191 5.390625 L 191 28 L 184 28 Z M 184 5.390625 " clip-rule="nonzero"/></clipPath></defs><path fill="#000000" d="M 187.171875 47.664062 C 198.890625 47.664062 209.496094 52.421875 217.175781 60.105469 C 224.855469 67.789062 229.601562 78.402344 229.601562 90.128906 C 229.601562 102.078125 224.539062 115.695312 216.460938 125.851562 C 208.910156 135.335938 198.65625 141.988281 187.171875 141.988281 L 187.171875 130.503906 C 194.8125 130.503906 201.980469 125.644531 207.492188 118.71875 C 214.027344 110.503906 218.125 99.601562 218.125 90.128906 C 218.125 81.578125 214.660156 73.832031 209.0625 68.226562 C 203.457031 62.621094 195.722656 59.152344 187.171875 59.152344 Z M 187.171875 141.988281 C 175.6875 141.988281 165.433594 135.335938 157.886719 125.851562 C 149.804688 115.695312 144.738281 102.078125 144.738281 90.128906 C 144.738281 78.402344 149.492188 67.789062 157.167969 60.105469 C 164.847656 52.421875 175.457031 47.664062 187.171875 47.664062 L 187.171875 59.152344 C 178.625 59.152344 170.882812 62.621094 165.285156 68.226562 C 159.683594 73.832031 156.214844 81.578125 156.214844 90.128906 C 156.214844 99.601562 160.3125 110.503906 166.851562 118.71875 C 172.363281 125.644531 179.53125 130.503906 187.171875 130.503906 L 187.171875 141.988281 " fill-opacity="1" fill-rule="nonzero"/><path fill="#000000" d="M 219.140625 83.539062 C 222.308594 83.539062 224.878906 86.109375 224.878906 89.28125 C 224.878906 92.453125 222.308594 95.027344 219.140625 95.027344 C 214.921875 95.027344 210.394531 94.753906 206.089844 93.960938 C 201.476562 93.121094 197.191406 91.65625 193.855469 89.28125 C 184.816406 82.847656 181.257812 86.078125 177.675781 89.335938 C 171.65625 94.804688 165.59375 100.3125 152.578125 93.847656 C 149.738281 92.449219 148.578125 89.011719 149.972656 86.175781 C 151.375 83.335938 154.808594 82.171875 157.640625 83.574219 C 163.675781 86.566406 166.828125 83.703125 169.964844 80.851562 C 176.972656 74.484375 183.933594 68.164062 200.492188 79.949219 C 202.332031 81.261719 205.058594 82.132812 208.148438 82.703125 C 211.542969 83.320312 215.410156 83.539062 219.140625 83.539062 " fill-opacity="1" fill-rule="nonzero"/><g clip-path="url(#fdc904bd5a)"><path fill="#000000" d="M 237.019531 275.699219 C 243.320312 280.9375 249.011719 285.511719 254.34375 289.800781 C 274.660156 306.140625 289.976562 318.457031 303.402344 338.007812 C 303.667969 338.402344 303.882812 338.820312 304.042969 339.246094 L 304.050781 339.246094 C 304.816406 341.289062 305.410156 344.21875 305.484375 347.035156 C 305.546875 349.445312 305.238281 351.910156 304.375 353.992188 C 302.902344 358.480469 300.039062 362.355469 296.296875 365.105469 C 292.582031 367.835938 288.011719 369.453125 283.101562 369.453125 L 188.582031 369.453125 L 188.582031 357.964844 L 283.101562 357.964844 C 285.507812 357.964844 287.730469 357.183594 289.527344 355.863281 C 291.378906 354.503906 292.796875 352.5625 293.507812 350.316406 L 293.515625 350.320312 C 293.59375 350.074219 293.6875 349.835938 293.800781 349.601562 C 294.011719 349.152344 294.078125 348.292969 294.050781 347.304688 C 294.019531 346.03125 293.808594 344.773438 293.523438 343.800781 C 281.214844 326.113281 266.546875 314.3125 247.167969 298.730469 C 240.960938 293.738281 234.292969 288.371094 227.351562 282.558594 L 227.359375 282.550781 C 225.921875 281.339844 225.101562 279.449219 225.355469 277.441406 C 225.667969 275.019531 226.855469 259.664062 228.035156 243.53125 C 229.332031 225.785156 230.605469 207.417969 230.699219 204.472656 L 230.703125 204.472656 C 230.714844 203.925781 230.808594 203.375 230.992188 202.832031 C 231.980469 199.832031 235.210938 198.207031 238.207031 199.199219 C 250.085938 203.140625 264.21875 201.699219 278.679688 197.339844 C 298.355469 191.414062 318.503906 180.066406 334.671875 169.28125 L 334.675781 169.28125 C 334.769531 169.21875 334.867188 169.15625 334.960938 169.097656 C 340.140625 166.078125 342.472656 162.339844 342.691406 158.941406 C 342.789062 157.464844 342.507812 156.050781 341.917969 154.808594 C 341.3125 153.546875 340.367188 152.421875 339.148438 151.535156 C 336.296875 149.457031 331.945312 148.78125 326.730469 150.71875 L 326.730469 150.714844 C 319.757812 153.585938 312.5625 157.902344 305.304688 162.253906 C 280.761719 176.957031 255.589844 192.042969 224.445312 165.621094 C 219.945312 161.804688 217.304688 159.953125 215.101562 159.3125 C 213.320312 158.796875 211.09375 159.015625 207.6875 159.503906 C 204.609375 161.09375 201.398438 162.363281 198.074219 163.25 C 194.972656 164.078125 191.800781 164.570312 188.582031 164.683594 L 188.582031 153.183594 C 190.808594 153.085938 192.992188 152.734375 195.113281 152.164062 C 197.847656 151.4375 200.527344 150.339844 203.128906 148.925781 C 203.832031 148.542969 204.574219 148.324219 205.316406 148.253906 C 210.632812 147.476562 214.101562 147.105469 218.289062 148.320312 C 222.292969 149.484375 226.070312 151.96875 231.84375 156.871094 C 256.75 178.003906 278.363281 165.054688 299.429688 152.425781 C 307.0625 147.851562 314.628906 143.316406 322.582031 140.0625 C 322.636719 140.039062 322.691406 140.019531 322.742188 140 L 322.742188 139.992188 C 331.988281 136.558594 340.175781 138.101562 345.875 142.246094 C 348.625 144.246094 350.792969 146.875 352.226562 149.871094 C 353.667969 152.886719 354.351562 156.234375 354.125 159.660156 C 353.675781 166.550781 349.679688 173.722656 340.945312 178.898438 C 324.0625 190.152344 302.917969 202.015625 281.953125 208.332031 C 268.117188 212.5 254.324219 214.25 241.730469 211.882812 C 241.234375 219.65625 240.355469 232.222656 239.46875 244.339844 C 238.527344 257.183594 237.566406 269.691406 237.019531 275.699219 Z M 188.582031 324.652344 L 188.582031 336.136719 L 225.449219 336.136719 C 228.621094 336.136719 231.191406 333.566406 231.191406 330.390625 C 231.191406 328.128906 229.882812 326.167969 227.980469 325.234375 L 190.4375 302.835938 L 190.171875 302.644531 C 189.582031 302.21875 189.066406 301.839844 188.582031 301.507812 L 188.582031 315.0625 L 204.652344 324.652344 Z M 188.582031 369.453125 L 182.882812 369.453125 C 172.234375 369.453125 165.382812 363.550781 162.34375 355.996094 C 161.199219 353.140625 160.625 350.078125 160.625 347.050781 C 160.625 344.023438 161.199219 340.960938 162.34375 338.105469 C 165.382812 330.550781 172.234375 324.652344 182.882812 324.652344 L 188.582031 324.652344 L 188.582031 336.136719 L 182.882812 336.136719 C 177.671875 336.136719 174.378906 338.871094 172.96875 342.367188 C 172.394531 343.808594 172.101562 345.414062 172.101562 347.050781 C 172.101562 348.683594 172.394531 350.289062 172.96875 351.734375 C 174.378906 355.230469 177.671875 357.964844 182.882812 357.964844 L 188.582031 357.964844 Z M 188.582031 315.0625 L 188.582031 301.507812 C 186.871094 300.335938 185.636719 299.769531 183.53125 299.769531 C 181.347656 299.769531 180.042969 300.464844 177.558594 301.78125 C 177.128906 302.007812 176.652344 302.265625 176.207031 302.488281 L 176.203125 302.480469 L 128.503906 325.210938 C 125.648438 326.574219 124.433594 330 125.789062 332.859375 C 126.777344 334.9375 128.855469 336.148438 131.011719 336.132812 L 147.75 337.058594 C 146.703125 340.308594 146.273438 343.546875 146.367188 346.804688 C 146.453125 349.882812 147.011719 352.914062 147.960938 355.925781 L 80.121094 357.988281 C 77.050781 358.082031 74.632812 357.085938 72.921875 355.460938 C 70.890625 353.53125 69.699219 350.667969 69.464844 347.578125 C 69.160156 343.511719 70.40625 340.054688 72.5 337.027344 C 74.878906 333.589844 78.367188 330.554688 82.042969 327.785156 C 97.113281 316.433594 104.289062 311.75 118.777344 302.300781 C 125.082031 298.191406 132.695312 293.226562 141.648438 287.285156 C 143.425781 286.109375 144.335938 284.109375 144.203125 282.125 C 144.109375 265.777344 143.882812 259.933594 143.375 246.527344 C 143.03125 237.523438 142.554688 225.128906 141.917969 204.472656 C 141.832031 201.3125 139.203125 198.820312 136.046875 198.90625 C 135.394531 198.925781 134.773438 199.050781 134.195312 199.269531 C 120.488281 203.734375 104.902344 201.082031 89.328125 195.070312 C 73.101562 188.8125 56.804688 178.832031 42.492188 169.28125 C 42.359375 169.191406 42.222656 169.109375 42.085938 169.03125 C 36.988281 166.023438 34.6875 162.3125 34.472656 158.941406 C 34.375 157.464844 34.652344 156.050781 35.25 154.808594 C 35.851562 153.546875 36.792969 152.421875 38.015625 151.535156 C 40.867188 149.457031 45.21875 148.785156 50.433594 150.71875 L 50.480469 150.734375 C 57.273438 153.535156 64.15625 157.519531 71.054688 161.511719 C 94.941406 175.34375 118.957031 189.246094 152.292969 165.933594 C 154.296875 164.535156 156.789062 163.222656 159.769531 162.105469 C 162.09375 161.230469 164.679688 160.488281 167.535156 159.925781 C 170.371094 161.328125 173.28125 162.449219 176.246094 163.246094 C 179.808594 164.195312 183.457031 164.707031 187.171875 164.707031 C 187.640625 164.707031 188.113281 164.699219 188.582031 164.683594 L 188.582031 153.183594 C 188.113281 153.207031 187.644531 153.21875 187.171875 153.21875 C 184.441406 153.21875 181.78125 152.851562 179.203125 152.160156 C 176.488281 151.433594 173.867188 150.375 171.371094 149.03125 C 170.25 148.359375 168.902344 148.066406 167.515625 148.292969 C 163.144531 149.011719 159.207031 150.074219 155.734375 151.382812 C 151.878906 152.828125 148.542969 154.601562 145.746094 156.558594 C 118.394531 175.683594 97.535156 163.609375 76.789062 151.597656 C 69.648438 147.464844 62.519531 143.335938 54.835938 140.167969 C 54.703125 140.105469 54.5625 140.046875 54.425781 139.992188 C 45.175781 136.558594 36.988281 138.101562 31.292969 142.246094 C 28.535156 144.246094 26.371094 146.875 24.9375 149.871094 C 23.496094 152.886719 22.816406 156.234375 23.039062 159.660156 C 23.488281 166.550781 27.480469 173.722656 36.21875 178.898438 C 50.988281 188.75 67.902344 199.074219 85.203125 205.75 C 100.535156 211.664062 116.097656 214.65625 130.710938 211.929688 C 131.246094 228.746094 131.644531 239.128906 131.941406 246.929688 C 132.421875 259.582031 132.652344 265.519531 132.753906 279.433594 C 123.953125 285.257812 117.757812 289.300781 112.546875 292.699219 C 97.894531 302.257812 90.636719 306.988281 75.183594 318.628906 C 70.660156 322.039062 66.296875 325.875 63.085938 330.519531 C 59.589844 335.582031 57.503906 341.4375 58.035156 348.433594 C 58.476562 354.261719 60.878906 359.820312 65.03125 363.761719 C 68.859375 367.394531 74.050781 369.625 80.433594 369.433594 L 156.375 367.121094 C 157.316406 367.140625 158.273438 366.933594 159.164062 366.460938 C 161.964844 364.988281 163.039062 361.523438 161.566406 358.722656 C 159.304688 354.453125 157.910156 350.394531 157.796875 346.488281 C 157.691406 342.777344 158.773438 338.980469 161.429688 334.976562 C 161.976562 334.152344 162.3125 333.179688 162.371094 332.128906 C 162.546875 328.964844 160.128906 326.265625 156.972656 326.09375 L 153.71875 325.914062 L 181.136719 312.851562 L 181.128906 312.839844 C 181.183594 312.816406 181.238281 312.789062 181.292969 312.761719 C 181.988281 312.402344 182.464844 312.148438 182.894531 311.917969 C 183.089844 311.816406 183.191406 311.722656 183.242188 311.644531 L 183.316406 311.71875 C 183.324219 311.769531 183.363281 311.824219 183.445312 311.886719 L 183.742188 312.105469 C 183.957031 312.277344 184.183594 312.4375 184.417969 312.578125 L 188.582031 315.0625 " fill-opacity="1" fill-rule="nonzero"/></g><path fill="#000000" d="M 141.113281 287.714844 C 137.945312 287.714844 135.375 285.144531 135.375 281.972656 C 135.375 278.796875 137.945312 276.226562 141.113281 276.226562 L 228.4375 276.226562 C 231.605469 276.226562 234.175781 278.796875 234.175781 281.972656 C 234.175781 285.144531 231.605469 287.714844 228.4375 287.714844 L 141.113281 287.714844 " fill-opacity="1" fill-rule="nonzero"/><path fill="#000000" d="M 201.769531 170.074219 C 203.636719 171.058594 204.347656 173.367188 203.367188 175.234375 C 202.386719 177.097656 200.078125 177.816406 198.210938 176.835938 L 187.902344 171.375 L 176.128906 177.605469 C 174.265625 178.585938 171.957031 177.871094 170.976562 176.003906 C 169.992188 174.140625 170.707031 171.828125 172.574219 170.84375 L 186.089844 163.691406 L 186.109375 163.679688 L 186.125 163.671875 C 187.199219 163.105469 188.523438 163.0625 189.675781 163.671875 L 201.769531 170.074219 " fill-opacity="1" fill-rule="nonzero"/><path fill="#000000" d="M 181.433594 172.167969 C 181.433594 168.996094 184.003906 166.421875 187.171875 166.421875 C 190.34375 166.421875 192.910156 168.996094 192.910156 172.167969 L 192.910156 253.742188 L 187.171875 259.484375 L 181.433594 253.742188 L 181.433594 172.167969 " fill-opacity="1" fill-rule="nonzero"/><path fill="#000000" d="M 52.28125 58.789062 C 53.632812 59.15625 54.953125 59.605469 56.222656 60.132812 C 57.503906 60.664062 58.742188 61.265625 59.933594 61.945312 L 66.320312 56.84375 C 67.855469 55.621094 70.042969 55.773438 71.394531 57.132812 L 71.398438 57.128906 L 77.035156 62.765625 C 78.46875 64.199219 78.527344 66.488281 77.210938 67.992188 L 72.371094 74.335938 C 73.070312 75.542969 73.6875 76.796875 74.226562 78.089844 C 74.746094 79.34375 75.195312 80.640625 75.5625 81.980469 L 83.660156 82.890625 C 85.617188 83.109375 87.058594 84.765625 87.058594 86.691406 L 87.066406 86.691406 L 87.066406 94.664062 C 87.066406 96.699219 85.472656 98.367188 83.464844 98.484375 L 75.597656 99.542969 C 75.230469 100.898438 74.78125 102.21875 74.257812 103.488281 C 73.726562 104.769531 73.121094 106.011719 72.441406 107.203125 L 77.539062 113.59375 C 78.757812 115.128906 78.605469 117.320312 77.253906 118.675781 L 77.257812 118.679688 L 71.621094 124.316406 C 70.191406 125.75 67.90625 125.808594 66.402344 124.492188 L 60.0625 119.652344 C 58.839844 120.355469 57.578125 120.980469 56.273438 121.519531 C 54.992188 122.050781 53.65625 122.507812 52.28125 122.878906 L 51.1875 131.035156 C 50.929688 132.957031 49.285156 134.347656 47.402344 134.347656 L 47.402344 134.355469 L 43.570312 134.355469 L 43.570312 126.699219 L 44.066406 126.699219 L 45.074219 119.234375 L 45.078125 119.238281 C 45.289062 117.636719 46.507812 116.289062 48.183594 115.992188 C 49.949219 115.671875 51.679688 115.152344 53.347656 114.460938 C 54.992188 113.777344 56.542969 112.9375 57.96875 111.960938 C 59.304688 110.949219 61.195312 110.910156 62.589844 111.972656 L 68.570312 116.539062 L 69.433594 115.679688 L 64.789062 109.855469 L 64.792969 109.855469 C 63.773438 108.574219 63.664062 106.726562 64.640625 105.3125 C 65.652344 103.839844 66.515625 102.257812 67.199219 100.585938 C 67.863281 98.992188 68.363281 97.324219 68.6875 95.605469 C 68.910156 93.9375 70.214844 92.5625 71.960938 92.332031 L 79.414062 91.324219 L 79.414062 90.105469 L 72.035156 89.277344 L 72.039062 89.273438 C 70.402344 89.09375 69.015625 87.867188 68.703125 86.164062 C 68.375 84.402344 67.859375 82.675781 67.171875 81.019531 C 66.492188 79.386719 65.660156 77.851562 64.6875 76.429688 C 63.679688 75.097656 63.636719 73.199219 64.699219 71.808594 L 69.261719 65.820312 L 68.402344 64.957031 L 62.585938 69.609375 L 62.582031 69.605469 C 61.300781 70.621094 59.460938 70.734375 58.042969 69.757812 C 56.574219 68.742188 54.992188 67.878906 53.324219 67.191406 C 51.730469 66.53125 50.0625 66.03125 48.34375 65.707031 C 46.683594 65.484375 45.304688 64.175781 45.074219 62.429688 L 44.066406 54.96875 L 43.570312 54.96875 L 43.570312 47.3125 L 47.402344 47.3125 C 49.441406 47.3125 51.105469 48.902344 51.222656 50.914062 Z M 43.570312 134.355469 L 39.4375 134.355469 C 37.390625 134.355469 35.71875 132.746094 35.617188 130.726562 L 34.730469 122.839844 C 33.394531 122.476562 32.097656 122.027344 30.84375 121.503906 C 29.554688 120.96875 28.304688 120.347656 27.09375 119.652344 L 20.554688 124.644531 C 19.011719 125.820312 16.867188 125.644531 15.539062 124.308594 L 15.53125 124.316406 L 9.898438 118.679688 C 8.453125 117.230469 8.410156 114.90625 9.765625 113.40625 L 14.710938 107.203125 C 14.03125 106.011719 13.429688 104.769531 12.898438 103.488281 C 12.375 102.21875 11.925781 100.898438 11.558594 99.542969 L 3.40625 98.449219 C 1.429688 98.179688 0.015625 96.445312 0.105469 94.492188 L 0.105469 86.691406 C 0.105469 84.722656 1.589844 83.109375 3.496094 82.902344 L 3.496094 82.890625 L 11.59375 81.980469 C 11.960938 80.640625 12.410156 79.34375 12.929688 78.089844 C 13.464844 76.800781 14.085938 75.546875 14.777344 74.335938 L 9.792969 67.792969 C 8.617188 66.25 8.792969 64.105469 10.128906 62.773438 L 10.121094 62.765625 L 15.757812 57.128906 C 17.203125 55.679688 19.523438 55.632812 21.027344 56.996094 L 27.21875 61.945312 C 28.394531 61.277344 29.617188 60.679688 30.882812 60.152344 L 30.878906 60.148438 C 32.121094 59.628906 33.410156 59.191406 34.730469 58.824219 L 35.644531 50.71875 C 35.855469 48.765625 37.515625 47.316406 39.4375 47.320312 L 39.4375 47.3125 L 43.570312 47.3125 L 43.570312 54.96875 L 42.851562 54.96875 L 42.019531 62.355469 L 42.015625 62.351562 C 41.839844 63.988281 40.613281 65.378906 38.914062 65.691406 C 37.15625 66.015625 35.449219 66.527344 33.808594 67.207031 L 33.804688 67.203125 L 33.792969 67.207031 C 32.199219 67.867188 30.683594 68.6875 29.265625 69.652344 C 27.90625 70.691406 25.96875 70.71875 24.570312 69.609375 L 18.75 64.957031 L 17.890625 65.820312 L 22.457031 71.808594 L 22.453125 71.808594 C 23.429688 73.085938 23.523438 74.898438 22.558594 76.296875 C 21.550781 77.757812 20.683594 79.335938 19.984375 81.023438 C 19.320312 82.617188 18.816406 84.273438 18.488281 85.972656 C 18.265625 87.679688 16.902344 89.078125 15.121094 89.277344 L 7.726562 90.105469 L 7.726562 91.320312 L 15.195312 92.332031 L 15.195312 92.335938 C 16.792969 92.546875 18.136719 93.769531 18.4375 95.4375 C 18.761719 97.21875 19.273438 98.941406 19.953125 100.585938 C 20.617188 102.199219 21.445312 103.730469 22.410156 105.15625 C 23.449219 106.515625 23.480469 108.457031 22.367188 109.855469 L 17.722656 115.679688 L 18.582031 116.539062 L 24.566406 111.972656 L 24.566406 111.976562 C 25.847656 110.996094 27.65625 110.90625 29.050781 111.867188 C 30.507812 112.878906 32.09375 113.746094 33.773438 114.445312 C 35.367188 115.109375 37.023438 115.613281 38.722656 115.941406 C 40.425781 116.164062 41.828125 117.527344 42.019531 119.3125 L 42.851562 126.699219 L 43.570312 126.699219 L 43.570312 134.355469 " fill-opacity="1" fill-rule="nonzero"/><path fill="#000000" d="M 43.578125 76.640625 C 47.492188 76.640625 51.039062 78.230469 53.601562 80.796875 C 56.167969 83.367188 57.753906 86.917969 57.753906 90.835938 C 57.753906 94.753906 56.171875 98.300781 53.601562 100.867188 C 51.039062 103.433594 47.492188 105.023438 43.578125 105.023438 L 43.578125 97.367188 C 45.378906 97.367188 47.015625 96.632812 48.195312 95.453125 C 49.375 94.269531 50.105469 92.636719 50.105469 90.835938 C 50.105469 89.027344 49.375 87.394531 48.195312 86.210938 C 47.015625 85.03125 45.378906 84.300781 43.578125 84.300781 Z M 43.578125 105.023438 C 39.664062 105.023438 36.117188 103.433594 33.554688 100.867188 C 30.984375 98.300781 29.398438 94.753906 29.398438 90.835938 C 29.398438 86.917969 30.984375 83.367188 33.554688 80.796875 C 36.117188 78.230469 39.664062 76.640625 43.578125 76.640625 L 43.578125 84.300781 C 41.777344 84.300781 40.140625 85.03125 38.960938 86.210938 C 37.777344 87.394531 37.050781 89.027344 37.050781 90.835938 C 37.050781 92.636719 37.777344 94.269531 38.960938 95.453125 C 40.140625 96.632812 41.777344 97.367188 43.578125 97.367188 L 43.578125 105.023438 " fill-opacity="1" fill-rule="nonzero"/><g clip-path="url(#bc0f334f49)"><path fill="#000000" d="M 331.542969 65.761719 C 333.25 63.175781 335.089844 61.035156 337.214844 59.335938 C 341.023438 56.285156 345.492188 54.761719 351.363281 54.761719 C 357.890625 54.761719 363.800781 57.414062 368.082031 61.695312 C 372.363281 65.980469 375.007812 71.894531 375.007812 78.425781 C 375.007812 93.550781 365.535156 100.664062 352.902344 110.152344 C 347.175781 114.453125 340.730469 119.292969 334.246094 125.78125 C 333.5 126.53125 332.519531 126.902344 331.542969 126.902344 L 331.542969 117.75 C 337.355469 112.289062 343.128906 107.957031 348.332031 104.050781 C 359.203125 95.886719 367.359375 89.761719 367.359375 78.425781 C 367.359375 74.007812 365.566406 70.007812 362.671875 67.113281 C 359.777344 64.214844 355.777344 62.417969 351.363281 62.417969 C 347.320312 62.417969 344.351562 63.378906 341.96875 65.285156 C 339.367188 67.367188 337.191406 70.683594 334.949219 75.171875 C 334.59375 75.886719 334.011719 76.496094 333.242188 76.878906 C 332.699219 77.152344 332.113281 77.28125 331.542969 77.28125 Z M 331.542969 126.902344 C 330.5625 126.902344 329.585938 126.53125 328.835938 125.78125 C 322.351562 119.292969 315.90625 114.453125 310.175781 110.152344 C 297.542969 100.664062 288.070312 93.550781 288.070312 78.425781 C 288.070312 71.894531 290.71875 65.980469 295 61.695312 C 299.28125 57.414062 305.191406 54.761719 311.71875 54.761719 C 317.585938 54.761719 322.058594 56.285156 325.863281 59.335938 C 327.988281 61.035156 329.828125 63.175781 331.542969 65.761719 L 331.542969 77.28125 C 330.144531 77.28125 328.796875 76.511719 328.132812 75.175781 C 325.890625 70.683594 323.710938 67.367188 321.113281 65.285156 C 318.726562 63.378906 315.761719 62.417969 311.71875 62.417969 C 307.304688 62.417969 303.304688 64.214844 300.40625 67.109375 C 297.511719 70.007812 295.722656 74.007812 295.722656 78.425781 C 295.722656 89.761719 303.875 95.886719 314.75 104.050781 C 319.953125 107.957031 325.722656 112.289062 331.542969 117.75 L 331.542969 126.902344 " fill-opacity="1" fill-rule="nonzero"/></g><g clip-path="url(#d6587c9c82)"><path fill="#000000" d="M 184.679688 8.695312 C 184.679688 7.109375 185.964844 5.824219 187.546875 5.824219 C 189.132812 5.824219 190.417969 7.109375 190.417969 8.695312 L 190.417969 24.765625 C 190.417969 26.355469 189.132812 27.640625 187.546875 27.640625 C 185.964844 27.640625 184.679688 26.355469 184.679688 24.765625 L 184.679688 8.695312 " fill-opacity="1" fill-rule="nonzero"/></g><path fill="#000000" d="M 217.78125 13.148438 C 218.320312 11.664062 219.960938 10.890625 221.445312 11.433594 C 222.933594 11.96875 223.699219 13.613281 223.160156 15.101562 L 217.6875 30.207031 C 217.144531 31.695312 215.507812 32.460938 214.019531 31.921875 C 212.53125 31.386719 211.765625 29.742188 212.304688 28.253906 L 217.78125 13.148438 " fill-opacity="1" fill-rule="nonzero"/><path fill="#000000" d="M 247.371094 28.625 C 248.386719 27.410156 250.191406 27.25 251.40625 28.265625 C 252.621094 29.28125 252.78125 31.089844 251.765625 32.304688 L 241.46875 44.636719 C 240.457031 45.851562 238.648438 46.011719 237.4375 44.992188 C 236.222656 43.976562 236.0625 42.171875 237.074219 40.957031 L 247.371094 28.625 " fill-opacity="1" fill-rule="nonzero"/><path fill="#000000" d="M 269.921875 53.277344 C 271.285156 52.484375 273.042969 52.949219 273.832031 54.320312 C 274.621094 55.6875 274.15625 57.441406 272.789062 58.234375 L 258.90625 66.3125 C 257.539062 67.105469 255.785156 66.636719 254.996094 65.269531 C 254.203125 63.898438 254.667969 62.144531 256.039062 61.355469 L 269.921875 53.277344 " fill-opacity="1" fill-rule="nonzero"/><path fill="#000000" d="M 102.253906 61.152344 C 100.871094 60.386719 100.375 58.640625 101.144531 57.261719 C 101.910156 55.878906 103.652344 55.382812 105.03125 56.152344 L 119.058594 63.96875 C 120.4375 64.738281 120.9375 66.480469 120.171875 67.863281 C 119.398438 69.242188 117.660156 69.742188 116.277344 68.972656 L 102.253906 61.152344 " fill-opacity="1" fill-rule="nonzero"/><path fill="#000000" d="M 122.25 34.15625 C 121.214844 32.960938 121.347656 31.152344 122.539062 30.121094 C 123.734375 29.082031 125.542969 29.210938 126.578125 30.410156 L 137.101562 42.546875 C 138.132812 43.742188 138 45.550781 136.808594 46.585938 C 135.613281 47.621094 133.804688 47.492188 132.773438 46.292969 L 122.25 34.15625 " fill-opacity="1" fill-rule="nonzero"/><path fill="#000000" d="M 150.421875 16.492188 C 149.855469 15.015625 150.597656 13.363281 152.066406 12.800781 C 153.542969 12.238281 155.191406 12.976562 155.757812 14.453125 L 161.507812 29.453125 C 162.074219 30.925781 161.335938 32.582031 159.863281 33.140625 C 158.390625 33.707031 156.738281 32.972656 156.171875 31.496094 L 150.421875 16.492188 " fill-opacity="1" fill-rule="nonzero"/></svg>