<svg xmlns="http://www.w3.org/2000/svg" xmlns:xlink="http://www.w3.org/1999/xlink" width="500" zoomAndPan="magnify" viewBox="0 0 375 374.999991" height="500" preserveAspectRatio="xMidYMid meet" version="1.0"><path fill="#000000" d="M 187.175781 69.980469 C 208.925781 69.535156 229.855469 68.257812 250.441406 63.824219 C 262.308594 61.269531 274.027344 58.167969 284.695312 52.066406 C 288.503906 49.890625 293.300781 47.882812 293.484375 42.976562 C 293.667969 37.925781 288.8125 35.964844 284.992188 33.796875 C 277.023438 29.28125 268.453125 26.261719 259.59375 24.128906 C 215.433594 13.464844 171.023438 13.238281 126.546875 21.632812 C 113.003906 24.1875 99.609375 27.753906 87.777344 35.304688 C 79.628906 40.503906 79.535156 45.089844 87.585938 50.164062 C 91.972656 52.933594 96.75 55.28125 101.628906 57.085938 C 129.488281 67.324219 158.621094 69.308594 187.175781 69.980469 Z M 290.886719 68.191406 C 221.886719 92.035156 153.503906 91.007812 84.9375 69.195312 C 85.488281 76.859375 109.265625 279.425781 115.03125 332.910156 C 116.046875 342.363281 120.332031 346.878906 128.769531 349.761719 C 148.113281 356.398438 168.128906 358.316406 188.28125 358.246094 C 209.269531 358.167969 230.1875 356.410156 249.984375 348.335938 C 255.285156 346.171875 259.128906 343.546875 259.699219 336.613281 C 261.089844 319.578125 287.695312 95.808594 290.886719 68.191406 Z M 187.894531 0.398438 C 220.585938 0.648438 252.914062 3.191406 283.679688 15.65625 C 289.085938 17.84375 294.101562 20.695312 298.707031 24.242188 C 306.730469 30.410156 310.355469 37.914062 309.054688 48.613281 C 301.085938 114.078125 278.472656 306.464844 275.597656 337.21875 C 274.449219 349.558594 268.507812 357.0625 257.929688 361.929688 C 240.832031 369.789062 222.492188 372.25 204.046875 373.449219 C 179.710938 375.042969 155.523438 373.5625 131.8125 367.152344 C 125.667969 365.5 119.753906 363.230469 114.15625 360.230469 C 105.8125 355.761719 101.136719 349.035156 100.019531 339.304688 C 90.070312 251.855469 79.914062 164.414062 69.8125 76.972656 C 68.695312 67.382812 68.070312 57.699219 66.335938 48.222656 C 64.351562 37.414062 69.070312 30.035156 77.027344 24.046875 C 91.324219 13.285156 108.273438 9.292969 125.335938 5.835938 C 145.96875 1.675781 166.863281 0.160156 187.894531 0.398438 " fill-opacity="1" fill-rule="nonzero"/><path fill="#000000" d="M 110.917969 190.308594 C 161.667969 211.863281 212.710938 211.484375 264.085938 190.503906 C 262.980469 199.910156 251.582031 290.238281 247.433594 324.4375 C 246.566406 331.550781 242.050781 334.914062 236.457031 337.6875 C 225.855469 342.945312 214.308594 344.496094 202.792969 345.316406 C 184.613281 346.605469 166.464844 346.125 148.636719 341.257812 C 136.199219 337.859375 128.496094 332.328125 126.992188 317.46875 C 122.828125 276.347656 110.917969 190.6875 110.917969 190.308594 " fill-opacity="1" fill-rule="nonzero"/><path fill="#000000" d="M 186.550781 192.828125 C 166.386719 192.257812 145.683594 191.542969 126.179688 185.75 C 119.203125 183.671875 110.085938 181.8125 110.394531 174.914062 C 110.679688 168.507812 119.363281 166.660156 126.238281 164.765625 C 151.53125 157.796875 177.875 156.976562 204.445312 158.210938 C 219.882812 158.925781 235.203125 160.433594 249.621094 164.835938 C 256.390625 166.898438 265.042969 168.8125 265.078125 175.28125 C 265.113281 181.8125 256.390625 183.648438 249.597656 185.65625 C 229.546875 191.574219 208.324219 192.363281 186.550781 192.828125 " fill-opacity="1" fill-rule="nonzero"/></svg>